<svg width="24" height="28" viewBox="0 0 24 28" fill="none" xmlns="http://www.w3.org/2000/svg">
<path d="M22.0418 11.1013C21.3288 11.1013 20.7502 11.6715 20.7502 12.3768C20.7502 17.141 16.8249 21.0173 12.0007 21.0173C7.17523 21.0173 3.24999 17.141 3.24999 12.3768C3.24999 11.6715 2.67134 11.1013 1.95837 11.1013C1.24539 11.1013 0.666748 11.6715 0.666748 12.3768C0.666748 18.1167 5.06601 22.8553 10.7091 23.4918V26.0582C10.7091 26.7623 11.2865 27.3337 12.0007 27.3337C12.7137 27.3337 13.2923 26.7623 13.2923 26.0582V23.4918C18.9342 22.8553 23.3334 18.1167 23.3334 12.3768C23.3334 11.6715 22.7548 11.1013 22.0418 11.1013Z" fill="#C6B3B3"/>
<path d="M11.7665 18.2895H12.234C15.4372 18.2895 18.036 15.7244 18.036 12.5611V6.39644C18.036 3.23057 15.4372 0.666748 12.234 0.666748H11.7665C8.56324 0.666748 5.9645 3.23057 5.9645 6.39644V12.5611C5.9645 15.7244 8.56324 18.2895 11.7665 18.2895Z" fill="#C6B3B3"/>
</svg>
