<svg width="27" height="21" viewBox="0 0 27 21" fill="none" xmlns="http://www.w3.org/2000/svg">
<path d="M26.0977 3.61864C25.539 3.26669 24.8524 3.23556 24.267 3.53336L22.291 4.53099C21.5603 4.89918 21.107 5.64368 21.107 6.47211V14.2501C21.107 15.0785 21.5603 15.8217 22.291 16.1926L24.2657 17.1889C24.5337 17.3269 24.8204 17.3933 25.107 17.3933C25.451 17.3933 25.7924 17.2958 26.0977 17.1049C26.6564 16.7543 26.9897 16.1466 26.9897 15.4806V5.24436C26.9897 4.57837 26.6564 3.97058 26.0977 3.61864Z" fill="#C6B3B3"/>
<path d="M13.5298 20.3621H5.80705C2.57769 20.3621 0.322998 18.1353 0.322998 14.9475V5.77661C0.322998 2.58744 2.57769 0.362061 5.80705 0.362061H13.5298C16.7592 0.362061 19.0139 2.58744 19.0139 5.77661V14.9475C19.0139 18.1353 16.7592 20.3621 13.5298 20.3621Z" fill="#C6B3B3"/>
</svg>
