<svg width="26" height="25" viewBox="0 0 26 25" fill="none" xmlns="http://www.w3.org/2000/svg">
<path d="M16.0001 1.33045e-07C15.4478 1.33045e-07 15.0001 0.447716 15.0001 1C15.0001 1.55229 15.4478 2 16.0001 2H21.5872L16.9609 6.62623C16.5704 7.01675 16.5704 7.64992 16.9609 8.04044C17.3515 8.43096 17.9846 8.43096 18.3752 8.04044L23.0001 3.41552V9C23.0001 9.55229 23.4478 10 24.0001 10C24.5524 10 25.0001 9.55229 25.0001 9V1.0512C25.014 0.77849 24.9168 0.501181 24.7085 0.292894C24.5132 0.0975597 24.2571 -7.14208e-05 24.0011 1.33045e-07H16.0001Z" fill="#C6B3B3"/>
<path d="M3.00008 15C3.00008 14.4477 2.55237 14 2.00008 14C1.4478 14 1.00008 14.4477 1.00008 15V23C0.999917 23.2561 1.09755 23.513 1.29298 23.7084C1.50127 23.9167 1.77859 24.0139 2.0513 24H10.0001C10.5524 24 11.0001 23.5523 11.0001 23C11.0001 22.4477 10.5524 22 10.0001 22H4.4156L9.04052 17.3751C9.43105 16.9846 9.43105 16.3514 9.04052 15.9609C8.65 15.5703 8.01683 15.5703 7.62631 15.9609L3.00008 20.5871V15Z" fill="#C6B3B3"/>
<path d="M24.0001 14C24.5524 14 25.0001 14.4477 25.0001 15V23C25.0003 23.2562 24.9027 23.5129 24.7072 23.7084C24.4989 23.9167 24.2216 24.0139 23.9489 24H16.0001C15.4478 24 15.0001 23.5523 15.0001 23C15.0001 22.4477 15.4478 22 16.0001 22H21.5846L16.9596 17.3751C16.5691 16.9846 16.5691 16.3514 16.9596 15.9609C17.3502 15.5703 17.9833 15.5703 18.3739 15.9609L23.0001 20.5871V15C23.0001 14.4477 23.4478 14 24.0001 14Z" fill="#C6B3B3"/>
<path d="M10.0001 2C10.5524 2 11.0001 1.55229 11.0001 1C11.0001 0.447716 10.5524 1.33045e-07 10.0001 1.33045e-07H2.00008C1.99982 1.33045e-07 2.00035 -6.871e-08 2.00008 1.33045e-07C1.74399 -0.000131558 1.48707 0.0974998 1.29167 0.292894C1.08338 0.501184 0.986186 0.778498 1.00008 1.05121L1.00008 9C1.00008 9.55229 1.4478 10 2.00008 10C2.55237 10 3.00008 9.55229 3.00008 9L3.00008 3.41552L7.62501 8.04044C8.01553 8.43097 8.6487 8.43097 9.03922 8.04044C9.42974 7.64992 9.42974 7.01675 9.03922 6.62623L4.41299 2L10.0001 2Z" fill="#C6B3B3"/>
</svg>
