<svg width="27" height="20" viewBox="0 0 27 20" fill="none" xmlns="http://www.w3.org/2000/svg">
<path fill-rule="evenodd" clip-rule="evenodd" d="M0.335725 10.0003C0.332005 11.6398 0.258844 13.8761 1.27317 14.712C2.2193 15.4917 2.88518 15.2908 4.61251 15.4175C6.34108 15.5455 9.98919 20.6268 12.8015 19.0195C14.2523 17.8786 14.3602 15.4869 14.3602 10.0003C14.3602 4.51362 14.2523 2.12188 12.8015 0.981025C9.98919 -0.627418 6.34108 4.45502 4.61251 4.58298C2.88518 4.70974 2.2193 4.50884 1.27317 5.28854C0.258844 6.12445 0.332005 8.36073 0.335725 10.0003Z" fill="#C6B3B3"/>
<path fill-rule="evenodd" clip-rule="evenodd" d="M22.542 1.05057C22.9956 0.735485 23.6187 0.847763 23.9338 1.30135C27.5716 6.53817 27.5841 13.4499 23.9335 18.6983C23.6181 19.1517 22.9949 19.2636 22.5415 18.9482C22.0881 18.6329 21.9762 18.0097 22.2916 17.5563C25.4635 12.9961 25.4537 6.99492 22.2912 2.44237C21.9762 1.98878 22.0884 1.36565 22.542 1.05057Z" fill="#C6B3B3"/>
<path fill-rule="evenodd" clip-rule="evenodd" d="M19.2783 4.21807C19.7576 3.94369 20.3686 4.10982 20.643 4.58912C22.5673 7.95066 22.5681 12.0592 20.6423 15.4128C20.3673 15.8917 19.7561 16.057 19.2771 15.782C18.7982 15.5069 18.6329 14.8957 18.9079 14.4168C20.479 11.681 20.4798 8.3297 18.9073 5.58274C18.6329 5.10344 18.799 4.49245 19.2783 4.21807Z" fill="#C6B3B3"/>
</svg>
