<svg width="20" height="22" viewBox="0 0 20 22" fill="none" xmlns="http://www.w3.org/2000/svg">
<path d="M4.55859 12.3096C4.55859 11.7573 5.00631 11.3096 5.55859 11.3096H5.56786C6.12014 11.3096 6.56786 11.7573 6.56786 12.3096C6.56786 12.8619 6.12014 13.3096 5.56786 13.3096H5.55859C5.00631 13.3096 4.55859 12.8619 4.55859 12.3096Z" fill="#B6B6B6"/>
<path d="M9.00532 12.3096C9.00532 11.7573 9.45303 11.3096 10.0053 11.3096H10.0146C10.5669 11.3096 11.0146 11.7573 11.0146 12.3096C11.0146 12.8619 10.5669 13.3096 10.0146 13.3096H10.0053C9.45303 13.3096 9.00532 12.8619 9.00532 12.3096Z" fill="#B6B6B6"/>
<path d="M13.4428 12.3096C13.4428 11.7573 13.8905 11.3096 14.4428 11.3096H14.452C15.0043 11.3096 15.452 11.7573 15.452 12.3096C15.452 12.8619 15.0043 13.3096 14.452 13.3096H14.4428C13.8905 13.3096 13.4428 12.8619 13.4428 12.3096Z" fill="#B6B6B6"/>
<path d="M4.55859 16.1961C4.55859 15.6438 5.00631 15.1961 5.55859 15.1961H5.56786C6.12014 15.1961 6.56786 15.6438 6.56786 16.1961C6.56786 16.7484 6.12014 17.1961 5.56786 17.1961H5.55859C5.00631 17.1961 4.55859 16.7484 4.55859 16.1961Z" fill="#B6B6B6"/>
<path d="M9.00532 16.1961C9.00532 15.6438 9.45303 15.1961 10.0053 15.1961H10.0146C10.5669 15.1961 11.0146 15.6438 11.0146 16.1961C11.0146 16.7484 10.5669 17.1961 10.0146 17.1961H10.0053C9.45303 17.1961 9.00532 16.7484 9.00532 16.1961Z" fill="#B6B6B6"/>
<path d="M13.4428 16.1961C13.4428 15.6438 13.8905 15.1961 14.4428 15.1961H14.452C15.0043 15.1961 15.452 15.6438 15.452 16.1961C15.452 16.7484 15.0043 17.1961 14.452 17.1961H14.4428C13.8905 17.1961 13.4428 16.7484 13.4428 16.1961Z" fill="#B6B6B6"/>
<path fill-rule="evenodd" clip-rule="evenodd" d="M15.043 1C15.043 0.447715 14.5953 0 14.043 0C13.4907 0 13.043 0.447715 13.043 1V1.5791H6.96484V1C6.96484 0.447715 6.51713 0 5.96484 0C5.41256 0 4.96484 0.447715 4.96484 1V1.61773C3.64595 1.74755 2.47928 2.20781 1.59524 3.04817C0.527195 4.06346 0 5.51154 0 7.22213V16.2718C0 18.0013 0.524131 19.4679 1.58826 20.4993C2.64741 21.5258 4.11648 21.9999 5.77096 21.9999H14.229C15.8829 21.9999 17.3506 21.5359 18.4098 20.5246C19.4761 19.5065 20 18.0565 20 16.3474V7.22392C20.005 5.51466 19.4837 4.06569 18.4173 3.04914C17.5338 2.20694 16.3655 1.74674 15.043 1.61741V1ZM13.043 3.5791V4.29078C13.043 4.84306 13.4907 5.29078 14.043 5.29078C14.5953 5.29078 15.043 4.84306 15.043 4.29078V3.63C15.9222 3.74732 16.5797 4.0605 17.0373 4.49677C17.6174 5.04971 18.004 5.92178 18 7.21906L18 7.22213V7.4043H2V7.22213C2 5.92563 2.38994 5.05219 2.9732 4.49774C3.43258 4.06105 4.08987 3.7482 4.96484 3.63052V4.29078C4.96484 4.84306 5.41256 5.29078 5.96484 5.29078C6.51713 5.29078 6.96484 4.84306 6.96484 4.29078V3.5791H13.043ZM2 9.4043V16.2718C2 17.5967 2.393 18.494 2.98019 19.0632C3.57235 19.6371 4.48876 19.9999 5.77096 19.9999H14.229C15.5211 19.9999 16.4389 19.6412 17.0287 19.0781C17.6114 18.5217 18 17.6455 18 16.3474V9.4043H2Z" fill="#B6B6B6"/>
</svg>
