<svg width="21" height="16" viewBox="0 0 21 16" fill="none" xmlns="http://www.w3.org/2000/svg">
<path d="M19.9872 3.13788C19.5682 2.87392 19.0532 2.85057 18.6142 3.07392L17.1322 3.82215C16.5842 4.09829 16.2442 4.65666 16.2442 5.27798V11.1115C16.2442 11.7328 16.5842 12.2902 17.1322 12.5683L18.6132 13.3155C18.8142 13.4191 19.0292 13.4688 19.2442 13.4688C19.5022 13.4688 19.7582 13.3958 19.9872 13.2526C20.4062 12.9897 20.6562 12.5338 20.6562 12.0343V4.35717C20.6562 3.85768 20.4062 3.40184 19.9872 3.13788Z" fill="#C4C6C9"/>
<path d="M10.5616 15.6953H4.76953C2.34751 15.6953 0.656494 14.0253 0.656494 11.6344V4.75623C0.656494 2.36435 2.34751 0.695312 4.76953 0.695312H10.5616C12.9836 0.695312 14.6746 2.36435 14.6746 4.75623V11.6344C14.6746 14.0253 12.9836 15.6953 10.5616 15.6953Z" fill="#C4C6C9"/>
</svg>
