<svg width="21" height="21" viewBox="0 0 21 21" fill="none" xmlns="http://www.w3.org/2000/svg">
<path fill-rule="evenodd" clip-rule="evenodd" d="M10.0176 8.40877C9.0971 8.40877 8.35091 9.15496 8.35091 10.0754C8.35091 10.9959 9.0971 11.7421 10.0176 11.7421C10.9381 11.7421 11.6842 10.9959 11.6842 10.0754C11.6842 9.15496 10.9381 8.40877 10.0176 8.40877ZM6.68424 10.0754C6.68424 8.23449 8.17663 6.74211 10.0176 6.74211C11.8585 6.74211 13.3509 8.23449 13.3509 10.0754C13.3509 11.9164 11.8585 13.4088 10.0176 13.4088C8.17663 13.4088 6.68424 11.9164 6.68424 10.0754Z" fill="#B6B6B6"/>
<path fill-rule="evenodd" clip-rule="evenodd" d="M10.0176 1.74211C9.79657 1.74211 9.5846 1.8299 9.42832 1.98618C9.27204 2.14246 9.18424 2.35443 9.18424 2.57544V2.72043C9.18253 3.1511 9.05491 3.57188 8.81711 3.93095C8.57931 4.29003 8.24171 4.57173 7.84585 4.74139C7.77539 4.77159 7.70126 4.79185 7.62559 4.80174C7.26589 4.9277 6.87868 4.95875 6.50175 4.89041C6.06758 4.81168 5.66695 4.6047 5.35152 4.29616L5.34495 4.28973L5.29499 4.23969C5.2176 4.16221 5.12536 4.10042 5.02419 4.05848C4.92303 4.01655 4.81459 3.99496 4.70508 3.99496C4.59557 3.99496 4.48713 4.01655 4.38596 4.05848C4.2848 4.10042 4.19289 4.16189 4.11549 4.23937L4.11484 4.24002C4.03736 4.31742 3.97589 4.40932 3.93396 4.51049C3.89202 4.61165 3.87043 4.72009 3.87043 4.82961C3.87043 4.93912 3.89202 5.04756 3.93396 5.14872C3.97589 5.24989 4.03736 5.34179 4.11484 5.41919L4.17167 5.47602C4.48021 5.79145 4.68716 6.19211 4.76588 6.62627C4.84303 7.0518 4.79352 7.49041 4.62379 7.88775C4.46915 8.29321 4.19839 8.64433 3.84512 8.89701C3.4847 9.15479 3.05506 9.29818 2.61207 9.30854L2.59258 9.30877H2.51758C2.29656 9.30877 2.0846 9.39657 1.92832 9.55285C1.77204 9.70913 1.68424 9.92109 1.68424 10.1421C1.68424 10.3631 1.77204 10.5751 1.92832 10.7314C2.0846 10.8876 2.29656 10.9754 2.51758 10.9754H2.66257C3.09324 10.9772 3.51402 11.1048 3.87309 11.3426C4.23092 11.5795 4.51191 11.9156 4.68176 12.3097C4.85848 12.7123 4.911 13.1586 4.83255 13.5913C4.75382 14.0254 4.54684 14.4261 4.2383 14.7415L4.23187 14.7481L4.18183 14.798C4.10435 14.8754 4.04256 14.9677 4.00062 15.0688C3.95869 15.17 3.9371 15.2784 3.9371 15.3879C3.9371 15.4975 3.95869 15.6059 4.00062 15.7071C4.04256 15.8082 4.10403 15.9001 4.18151 15.9775L4.18216 15.9782C4.25955 16.0557 4.35146 16.1171 4.45263 16.1591C4.55379 16.201 4.66223 16.2226 4.77174 16.2226C4.88126 16.2226 4.9897 16.201 5.09086 16.1591C5.19203 16.1171 5.28394 16.0557 5.36133 15.9782L5.41816 15.9213C5.73359 15.6128 6.13425 15.4059 6.56841 15.3271C6.99393 15.25 7.43254 15.2995 7.82989 15.4692C8.23535 15.6239 8.58647 15.8946 8.83914 16.2479C9.09693 16.6083 9.24032 17.038 9.25068 17.481L9.25091 17.5004V17.5754C9.25091 17.7965 9.33871 18.0084 9.49499 18.1647C9.65127 18.321 9.86323 18.4088 10.0842 18.4088C10.3053 18.4088 10.5172 18.321 10.6735 18.1647C10.8298 18.0084 10.9176 17.7965 10.9176 17.5754V17.4338L10.9176 17.4304C10.9193 16.9998 11.0469 16.579 11.2847 16.2199C11.5217 15.8621 11.8578 15.5811 12.2519 15.4112C12.6545 15.2345 13.1007 15.182 13.5334 15.2605C13.9676 15.3392 14.3682 15.5462 14.6836 15.8547L14.6902 15.8611L14.7402 15.9112C14.8176 15.9887 14.9098 16.0505 15.011 16.0924C15.1121 16.1343 15.2206 16.1559 15.3301 16.1559C15.4396 16.1559 15.548 16.1343 15.6492 16.0924C15.7504 16.0505 15.8423 15.989 15.9197 15.9115L15.9203 15.9109C15.9978 15.8335 16.0593 15.7416 16.1012 15.6404C16.1431 15.5392 16.1647 15.4308 16.1647 15.3213C16.1647 15.2118 16.1431 15.1033 16.1012 15.0022C16.0593 14.901 15.9978 14.8091 15.9203 14.7317L15.8635 14.6749C15.5549 14.3594 15.348 13.9588 15.2693 13.5246C15.1908 13.0919 15.2433 12.6457 15.42 12.2431C15.5899 11.849 15.8709 11.5129 16.2287 11.2759C16.5878 11.0381 17.0086 10.9105 17.4393 10.9088L17.4426 10.9088L17.5176 10.9088C17.7386 10.9088 17.9506 10.821 18.1068 10.6647C18.2631 10.5084 18.3509 10.2965 18.3509 10.0754C18.3509 9.85443 18.2631 9.64246 18.1068 9.48618C17.9506 9.3299 17.7386 9.24211 17.5176 9.24211H17.3759L17.3726 9.2421C16.9419 9.24038 16.5211 9.11277 16.1621 8.87497C15.803 8.63717 15.5213 8.29957 15.3516 7.90372C15.3214 7.83325 15.3012 7.75912 15.2913 7.68345C15.1653 7.32375 15.1343 6.93654 15.2026 6.55961C15.2813 6.12544 15.4883 5.72481 15.7969 5.40939L15.8033 5.40282L15.8533 5.35285C15.9308 5.27546 15.9926 5.18322 16.0345 5.08206C16.0765 4.98089 16.0981 4.87245 16.0981 4.76294C16.0981 4.65343 16.0765 4.54499 16.0345 4.44382C15.9926 4.34266 15.9311 4.25075 15.8537 4.17336L15.853 4.1727C15.7756 4.09522 15.6837 4.03375 15.5825 3.99182C15.4814 3.94988 15.3729 3.92829 15.2634 3.92829C15.1539 3.92829 15.0455 3.94988 14.9443 3.99182C14.8431 4.03375 14.7512 4.09522 14.6738 4.1727L14.617 4.22953C14.3016 4.53807 13.9009 4.74502 13.4667 4.82374C13.034 4.9022 12.5878 4.84967 12.1852 4.67295C11.7911 4.50311 11.455 4.22211 11.218 3.86428C10.9802 3.50521 10.8526 3.08444 10.8509 2.65376L10.8509 2.65044V2.57544C10.8509 2.35443 10.7631 2.14246 10.6068 1.98618C10.4506 1.8299 10.2386 1.74211 10.0176 1.74211ZM16.1842 12.5754L16.9466 12.9119C16.9029 13.0109 16.8899 13.1208 16.9092 13.2273C16.9283 13.3326 16.9782 13.4299 17.0525 13.5068L17.0982 13.5525C17.3305 13.7846 17.5151 14.0606 17.6408 14.3639C17.7666 14.6674 17.8314 14.9927 17.8314 15.3213C17.8314 15.6498 17.7666 15.9751 17.6408 16.2786C17.515 16.5821 17.3306 16.8578 17.0982 17.09L16.5092 16.5004L17.0988 17.0894C16.8666 17.3218 16.5909 17.5062 16.2874 17.632C15.9839 17.7578 15.6586 17.8226 15.3301 17.8226C15.0015 17.8226 14.6762 17.7578 14.3727 17.632C14.0694 17.5063 13.7938 17.322 13.5617 17.0897L13.5156 17.0437C13.4387 16.9694 13.3414 16.9195 13.2361 16.9004C13.1296 16.8811 13.0197 16.8941 12.9207 16.9378L12.9125 16.9414C12.8154 16.983 12.7326 17.0521 12.6743 17.1402C12.6162 17.2279 12.5849 17.3307 12.5842 17.4359V17.5754C12.5842 18.2385 12.3209 18.8744 11.852 19.3432C11.3832 19.812 10.7473 20.0754 10.0842 20.0754C9.4212 20.0754 8.78532 19.812 8.31648 19.3432C7.84764 18.8744 7.58424 18.2385 7.58424 17.5754V17.5124C7.58029 17.4064 7.5453 17.3038 7.48353 17.2175C7.4203 17.1291 7.33194 17.0617 7.22993 17.0242C7.21345 17.0182 7.19717 17.0116 7.18111 17.0045C7.08209 16.9608 6.97226 16.9478 6.86576 16.9671C6.76042 16.9862 6.66314 17.036 6.58616 17.1104L6.54049 17.156C6.30838 17.3883 6.03245 17.5729 5.7291 17.6987C5.4256 17.8245 5.10028 17.8892 4.77174 17.8892C4.4432 17.8892 4.11789 17.8245 3.81439 17.6987C3.51119 17.573 3.2357 17.3888 3.00365 17.1567C2.77121 16.9245 2.58681 16.6488 2.461 16.3453C2.33519 16.0418 2.27043 15.7165 2.27043 15.3879C2.27043 15.0594 2.33519 14.7341 2.461 14.4306C2.58681 14.1271 2.77121 13.8514 3.00365 13.6192L3.04934 13.5735C3.12365 13.4965 3.17352 13.3992 3.19262 13.2939C3.21193 13.1874 3.19889 13.0776 3.15519 12.9786L3.15158 12.9704C3.10997 12.8733 3.04092 12.7905 2.95284 12.7321C2.86511 12.6741 2.76236 12.6428 2.65716 12.6421H2.51758C1.85454 12.6421 1.21865 12.3787 0.749811 11.9099C0.28097 11.441 0.0175781 10.8051 0.0175781 10.1421C0.0175781 9.47906 0.28097 8.84318 0.749811 8.37434C1.21865 7.9055 1.85454 7.64211 2.51758 7.64211H2.58061C2.68661 7.63815 2.78917 7.60316 2.87554 7.54139C2.96394 7.47816 3.03128 7.3898 3.0688 7.28779C3.07486 7.27131 3.08144 7.25503 3.08853 7.23897C3.13223 7.13995 3.14526 7.03012 3.12595 6.92362C3.10685 6.81829 3.05698 6.72101 2.98266 6.64403L2.93698 6.59836C2.70454 6.36617 2.52014 6.09045 2.39433 5.78696C2.26852 5.48346 2.20377 5.15814 2.20377 4.82961C2.20377 4.50107 2.26852 4.17575 2.39433 3.87226C2.52009 3.5689 2.70437 3.2933 2.93666 3.06118C3.16877 2.8289 3.44437 2.64461 3.74773 2.51886C4.05122 2.39305 4.37654 2.32829 4.70508 2.32829C5.03362 2.32829 5.35893 2.39305 5.66243 2.51886C5.96592 2.64467 6.24165 2.82907 6.47383 3.06151L6.5195 3.10719C6.59648 3.1815 6.69376 3.23138 6.7991 3.25048C6.90559 3.26979 7.01543 3.25675 7.11444 3.21305C7.16781 3.1895 7.22335 3.17168 7.28014 3.15979C7.33824 3.12035 7.3884 3.0698 7.42753 3.0107C7.48563 2.92297 7.51692 2.82023 7.51758 2.71502V2.57544C7.51758 1.9124 7.78097 1.27651 8.24981 0.807673C8.71865 0.338832 9.35454 0.0754395 10.0176 0.0754395C10.6806 0.0754395 11.3165 0.338832 11.7853 0.807673C12.2542 1.27651 12.5176 1.9124 12.5176 2.57544V2.64836C12.5182 2.75356 12.5495 2.85631 12.6076 2.94404C12.6659 3.03211 12.7488 3.10121 12.8459 3.14282L12.8541 3.14634C12.9531 3.19004 13.0629 3.20312 13.1694 3.18381C13.2747 3.16472 13.372 3.11484 13.449 3.04053L13.4947 2.99484C13.7268 2.7624 14.0026 2.57801 14.3061 2.4522C14.6096 2.32639 14.9349 2.26163 15.2634 2.26163C15.592 2.26163 15.9173 2.32639 16.2208 2.4522C16.5243 2.57801 16.8 2.7624 17.0322 2.99484C17.2643 3.22689 17.4485 3.50238 17.5742 3.80559C17.7 4.10908 17.7647 4.4344 17.7647 4.76294C17.7647 5.09148 17.7 5.4168 17.5742 5.72029C17.4484 6.02364 17.2641 6.29925 17.0318 6.53136L16.9858 6.57736C16.9115 6.65434 16.8616 6.75162 16.8425 6.85696C16.8232 6.96345 16.8363 7.07329 16.88 7.1723C16.9035 7.22567 16.9213 7.28121 16.9332 7.338C16.9727 7.3961 17.0232 7.44626 17.0823 7.48539C17.17 7.5435 17.2728 7.57478 17.378 7.57544H17.5176C18.1806 7.57544 18.8165 7.83883 19.2853 8.30767C19.7542 8.77651 20.0176 9.4124 20.0176 10.0754C20.0176 10.7385 19.7542 11.3744 19.2853 11.8432C18.8165 12.312 18.1806 12.5754 17.5176 12.5754H17.4447C17.3395 12.5761 17.2367 12.6074 17.149 12.6655C17.0609 12.7238 16.9918 12.8066 16.9502 12.9037L16.1842 12.5754Z" fill="#B6B6B6"/>
</svg>
