<svg width="22" height="22" viewBox="0 0 22 22" fill="none" xmlns="http://www.w3.org/2000/svg">
<path fill-rule="evenodd" clip-rule="evenodd" d="M17.3645 4.63327C13.8537 1.12209 8.14854 1.12209 4.63774 4.63418C1.88851 7.38281 1.29051 11.4568 2.83411 14.7924C2.8413 14.808 2.84809 14.8237 2.85447 14.8396C2.86072 14.8551 2.86702 14.8708 2.87336 14.8865C3.07208 15.3805 3.31751 15.9905 3.31751 16.6265C3.31751 17.0726 3.21186 17.5005 3.10703 17.8484C3.05328 18.0267 2.99396 18.202 2.94015 18.3599L2.92639 18.4003C2.87634 18.5471 2.83183 18.6776 2.7922 18.8046C2.71338 19.057 2.67897 19.2208 2.67135 19.3287C2.77871 19.3209 2.94184 19.2865 3.19283 19.2077C3.32166 19.1672 3.45442 19.1216 3.60397 19.0702L3.63561 19.0593C3.79278 19.0053 3.96728 18.9456 4.14464 18.8915C4.49043 18.7859 4.91615 18.6786 5.35969 18.676L5.36562 18.676C5.99525 18.676 6.60949 18.924 7.09265 19.1192C7.11544 19.1284 7.13795 19.1374 7.16015 19.1464C7.17573 19.1527 7.19116 19.1593 7.20641 19.1664C10.5429 20.7094 14.6152 20.1123 17.3645 17.3628C20.8758 13.8511 20.8819 8.1511 17.3645 4.63327ZM3.22347 3.22002C7.51537 -1.07323 14.4869 -1.07316 18.7787 3.21913C23.0781 7.51891 23.0701 14.4851 18.7787 18.7769C15.4222 22.1339 10.4564 22.8612 6.39053 20.9925C5.80901 20.7589 5.55858 20.6768 5.36849 20.676C5.21887 20.6774 5.01567 20.7167 4.7286 20.8043C4.58856 20.8471 4.4444 20.8961 4.28554 20.9507L4.24903 20.9633C4.10523 21.0127 3.94779 21.0669 3.79209 21.1158C3.46744 21.2177 3.05247 21.3302 2.62746 21.3304C2.16717 21.3307 1.6508 21.1979 1.22692 20.7745C0.803095 20.3506 0.669672 19.8337 0.669672 19.3734C0.669672 18.9485 0.781703 18.5333 0.883064 18.2086C0.930923 18.0553 0.983895 17.9 1.03235 17.7579C1.0373 17.7434 1.0422 17.729 1.04704 17.7148C1.10119 17.5559 1.14984 17.4115 1.19207 17.2714C1.27919 16.9822 1.31751 16.7775 1.31751 16.6265C1.31751 16.4332 1.23926 16.1854 1.00793 15.6083C-0.861451 11.5429 -0.132793 6.57573 3.22347 3.22002C3.22354 3.21995 3.22341 3.22009 3.22347 3.22002Z" fill="#B6B6B6"/>
<path fill-rule="evenodd" clip-rule="evenodd" d="M13.4396 11.4129C13.4396 10.5844 14.1112 9.91287 14.9396 9.91287H14.9486C15.777 9.91287 16.4486 10.5844 16.4486 11.4129C16.4486 12.2413 15.777 12.9129 14.9486 12.9129H14.9396C14.1112 12.9129 13.4396 12.2413 13.4396 11.4129Z" fill="#B6B6B6"/>
<path fill-rule="evenodd" clip-rule="evenodd" d="M9.43022 11.4129C9.43022 10.5844 10.1018 9.91287 10.9302 9.91287H10.9392C11.7676 9.91287 12.4392 10.5844 12.4392 11.4129C12.4392 12.2413 11.7676 12.9129 10.9392 12.9129H10.9302C10.1018 12.9129 9.43022 12.2413 9.43022 11.4129Z" fill="#B6B6B6"/>
<path fill-rule="evenodd" clip-rule="evenodd" d="M5.42101 11.4129C5.42101 10.5844 6.09258 9.91287 6.92101 9.91287H6.93001C7.75844 9.91287 8.43001 10.5844 8.43001 11.4129C8.43001 12.2413 7.75844 12.9129 6.93001 12.9129H6.92101C6.09258 12.9129 5.42101 12.2413 5.42101 11.4129Z" fill="#B6B6B6"/>
</svg>
