<svg width="22" height="22" viewBox="0 0 22 22" fill="none" xmlns="http://www.w3.org/2000/svg">
<path fill-rule="evenodd" clip-rule="evenodd" d="M7.07835 15.1354C7.07835 14.5831 7.52606 14.1354 8.07835 14.1354H13.8933C14.4456 14.1354 14.8933 14.5831 14.8933 15.1354C14.8933 15.6877 14.4456 16.1354 13.8933 16.1354H8.07835C7.52606 16.1354 7.07835 15.6877 7.07835 15.1354Z" fill="#B6B6B6"/>
<path fill-rule="evenodd" clip-rule="evenodd" d="M5.97317 5.16684C5.56081 5.54865 5.19063 5.87686 4.86259 6.166C4.81591 6.20713 4.77029 6.24731 4.72565 6.28661C4.44652 6.53242 4.20614 6.74409 3.9903 6.94333C3.49067 7.40454 3.19394 7.73607 2.98741 8.09646C2.57295 8.81968 2.39966 9.85946 2.39966 12.713C2.39966 14.7638 2.52293 16.214 2.79278 17.2524C3.05583 18.2647 3.43737 18.8084 3.91566 19.1517C4.42585 19.518 5.1776 19.7526 6.37274 19.8758C7.56629 19.9988 9.05993 20 10.9857 20C12.9114 20 14.405 19.9988 15.5986 19.8758C16.7937 19.7526 17.5455 19.518 18.0557 19.1517C18.5339 18.8084 18.9155 18.2647 19.1785 17.2524C19.4484 16.214 19.5717 14.7638 19.5717 12.713C19.5717 9.85935 19.3986 8.81955 18.9843 8.0963C18.7779 7.73595 18.4813 7.40444 17.9818 6.94327C17.7658 6.74383 17.5252 6.53192 17.2457 6.2858C17.2013 6.24674 17.156 6.20683 17.1097 6.16597C16.7816 5.87683 16.4115 5.54861 15.9991 5.16679C15.7489 4.9646 15.4937 4.74931 15.2314 4.52802C14.6646 4.04986 14.0646 3.54369 13.4098 3.08114C12.4295 2.38865 11.5933 2 10.9577 2C10.3253 2 9.50164 2.38779 8.53445 3.08121C7.90751 3.53069 7.34302 4.01168 6.80339 4.47148C6.52166 4.71154 6.2467 4.94583 5.97317 5.16684ZM7.36911 1.45579C8.37418 0.735213 9.647 0 10.9577 0C12.264 0 13.5463 0.72885 14.5638 1.44761C15.2888 1.95978 16.0134 2.57038 16.6091 3.07239C16.8589 3.28281 17.0859 3.47415 17.2809 3.63117C17.299 3.64575 17.3166 3.66096 17.3336 3.67677C17.7373 4.05112 18.1008 4.37353 18.4322 4.66563C18.477 4.70516 18.5214 4.7443 18.5655 4.78306C18.8431 5.02753 19.1038 5.25708 19.3385 5.47379C19.8835 5.97693 20.3598 6.4738 20.7198 7.1022C21.4382 8.35645 21.5717 9.93565 21.5717 12.713C21.5717 14.8057 21.4501 16.4632 21.1143 17.7554C20.7716 19.0739 20.1868 20.0839 19.2219 20.7765C18.289 21.4462 17.1209 21.7295 15.8036 21.8652C14.4961 22 12.9011 22 11.0343 22H10.937C9.07019 22 7.47519 22 6.16767 21.8652C4.85041 21.7295 3.68234 21.4462 2.74941 20.7765C1.78457 20.0839 1.19967 19.0739 0.857068 17.7554C0.521262 16.4632 0.399658 14.8057 0.399658 12.713C0.399658 9.93554 0.533362 8.35632 1.25216 7.10204C1.61225 6.47368 2.08871 5.97683 2.63373 5.47373C2.86827 5.25724 3.12872 5.02791 3.40607 4.78371C3.45034 4.74472 3.49505 4.70536 3.54015 4.66561C3.87154 4.37352 4.23503 4.05111 4.63868 3.67677C4.65578 3.66091 4.67343 3.64565 4.6916 3.63103C4.89424 3.46791 5.13612 3.26231 5.40406 3.03456C5.98196 2.54334 6.68108 1.94907 7.36911 1.45579Z" fill="#B6B6B6"/>
</svg>
