<svg width="22" height="23" viewBox="0 0 22 23" fill="none" xmlns="http://www.w3.org/2000/svg">
<path d="M20.441 11.0499L11.251 20.2399C10.1252 21.3658 8.59821 21.9983 7.00602 21.9983C5.41384 21.9983 3.88687 21.3658 2.76102 20.2399C1.63518 19.1141 1.00269 17.5871 1.00269 15.9949C1.00269 14.4027 1.63518 12.8758 2.76102 11.7499L11.951 2.55992C12.7016 1.80936 13.7196 1.3877 14.781 1.3877C15.8425 1.3877 16.8605 1.80936 17.611 2.55992C18.3616 3.31048 18.7832 4.32846 18.7832 5.38992C18.7832 6.45137 18.3616 7.46936 17.611 8.21992L8.41102 17.4099C8.03574 17.7852 7.52675 17.996 6.99602 17.996C6.46529 17.996 5.9563 17.7852 5.58102 17.4099C5.20574 17.0346 4.99491 16.5256 4.99491 15.9949C4.99491 15.4642 5.20574 14.9552 5.58102 14.5799L14.071 6.09992" stroke="#B6B6B6" stroke-width="2" stroke-linecap="round" stroke-linejoin="round"/>
</svg>
