<svg width="24" height="24" viewBox="0 0 24 24" fill="none" xmlns="http://www.w3.org/2000/svg">
<path fill-rule="evenodd" clip-rule="evenodd" d="M12.7124 16.4238C12.7124 16.1132 12.9642 15.8613 13.2749 15.8613H18.0577C18.3683 15.8613 18.6202 16.1132 18.6202 16.4238C18.6202 16.7345 18.3683 16.9863 18.0577 16.9863H13.2749C12.9642 16.9863 12.7124 16.7345 12.7124 16.4238Z" fill="#5D5FEF"/>
<path d="M14.6547 4.95028C13.8884 4.34975 12.9176 4.30983 12.3168 5.07494L11.4875 6.13251L15.4601 9.11202L16.2247 8.13704C16.8255 7.37029 16.554 6.43895 15.7878 5.83843L14.6547 4.95028Z" fill="#5D5FEF"/>
<path d="M14.7658 9.9975L10.7931 7.01799L5.55985 13.6917C5.33405 13.9809 5.2509 14.3558 5.33405 14.7118L5.92423 17.25L8.53032 17.2166C8.89715 17.2125 9.24196 17.0422 9.46776 16.7538L14.7658 9.9975Z" fill="#5D5FEF"/>
</svg>
