<svg width="20" height="15" viewBox="0 0 20 15" fill="none" xmlns="http://www.w3.org/2000/svg">
<path d="M19.3307 2.44257C18.9117 2.17861 18.3967 2.15526 17.9577 2.37861L16.4757 3.12683C15.9277 3.40298 15.5877 3.96135 15.5877 4.58267V10.4162C15.5877 11.0375 15.9277 11.5949 16.4757 11.873L17.9567 12.6202C18.1577 12.7238 18.3727 12.7735 18.5877 12.7735C18.8457 12.7735 19.1017 12.7004 19.3307 12.5573C19.7497 12.2943 19.9997 11.8385 19.9997 11.339V3.66186C19.9997 3.16237 19.7497 2.70653 19.3307 2.44257Z" fill="#82A7D1"/>
<path d="M9.9051 15H4.11304C1.69102 15 0 13.3299 0 10.9391V4.06091C0 1.66904 1.69102 0 4.11304 0H9.9051C12.3271 0 14.0181 1.66904 14.0181 4.06091V10.9391C14.0181 13.3299 12.3271 15 9.9051 15Z" fill="#82A7D1"/>
</svg>
