<svg width="18" height="20" viewBox="0 0 18 20" fill="none" xmlns="http://www.w3.org/2000/svg">
<path d="M16.5313 7.82592C15.9966 7.82592 15.5626 8.25354 15.5626 8.78257C15.5626 12.3557 12.6186 15.2629 9.00048 15.2629C5.38136 15.2629 2.43743 12.3557 2.43743 8.78257C2.43743 8.25354 2.00345 7.82592 1.46872 7.82592C0.933985 7.82592 0.5 8.25354 0.5 8.78257C0.5 13.0875 3.79945 16.6414 8.03177 17.1188V19.0436C8.03177 19.5717 8.46478 20.0002 9.00048 20.0002C9.53522 20.0002 9.9692 19.5717 9.9692 19.0436V17.1188C14.2006 16.6414 17.5 13.0875 17.5 8.78257C17.5 8.25354 17.066 7.82592 16.5313 7.82592Z" fill="#82A7D1"/>
<path d="M8.82451 13.2171H9.17519C11.5776 13.2171 13.5267 11.2932 13.5267 8.92076V4.29727C13.5267 1.92287 11.5776 0 9.17519 0H8.82451C6.4221 0 4.47304 1.92287 4.47304 4.29727V8.92076C4.47304 11.2932 6.4221 13.2171 8.82451 13.2171Z" fill="#82A7D1"/>
</svg>
